<svg xmlns="http://www.w3.org/2000/svg" style="display: none;">
  <symbol id="icon-logo" viewBox="0 0 24 24" fill="none" stroke="currentColor" stroke-width="1.5" stroke-linecap="round" stroke-linejoin="round">
    <circle cx="12" cy="12" r="9"></circle>
    <circle cx="12" cy="12" r="2.5"></circle>
    <path d="M12 3v3"></path>
    <path d="M12 18v3"></path>
    <path d="M3 12h3"></path>
    <path d="M18 12h3"></path>
  </symbol>
  <symbol id="icon-campaign" viewBox="0 0 24 24" fill="none" stroke="currentColor" stroke-width="1.5" stroke-linecap="round" stroke-linejoin="round">
    <path d="M5 4.5h10a3 3 0 0 1 3 3v12H8a3 3 0 0 0-3 3z"></path>
    <path d="M8 7.5h10a1 1 0 0 1 1 1v11"></path>
    <path d="M8 19.5V7.5a3 3 0 0 0-3 3v9"></path>
  </symbol>
  <symbol id="icon-chat" viewBox="0 0 24 24" fill="none" stroke="currentColor" stroke-width="1.5" stroke-linecap="round" stroke-linejoin="round">
    <path d="M5 6.5h14a2 2 0 0 1 2 2v7a2 2 0 0 1-2 2H10l-5 3v-3H5a2 2 0 0 1-2-2v-7a2 2 0 0 1 2-2z"></path>
    <path d="M8 10.5h8"></path>
    <path d="M8 13.5h5"></path>
  </symbol>
  <symbol id="icon-config" viewBox="0 0 24 24" fill="none" stroke="currentColor" stroke-width="1.5" stroke-linecap="round" stroke-linejoin="round">
    <circle cx="12" cy="12" r="3"></circle>
    <path d="M19.4 15a1 1 0 0 0 .2 1.1l.1.1a1.5 1.5 0 0 1 0 2.1l-.1.1a1.5 1.5 0 0 1-2.1 0l-.1-.1a1 1 0 0 0-1.1-.2 1 1 0 0 0-.6.9V19a1.5 1.5 0 0 1-1.5 1.5h-.4A1.5 1.5 0 0 1 11.5 19v-.2a1 1 0 0 0-.6-.9 1 1 0 0 0-1.1.2l-.1.1a1.5 1.5 0 0 1-2.1 0l-.1-.1a1.5 1.5 0 0 1 0-2.1l.1-.1a1 1 0 0 0 .2-1.1 1 1 0 0 0-.9-.6H6.5A1.5 1.5 0 0 1 5 12.8v-.4A1.5 1.5 0 0 1 6.5 10.9h.2a1 1 0 0 0 .9-.6 1 1 0 0 0-.2-1.1l-.1-.1a1.5 1.5 0 0 1 0-2.1l.1-.1a1.5 1.5 0 0 1 2.1 0l.1.1a1 1 0 0 0 1.1.2 1 1 0 0 0 .6-.9V5a1.5 1.5 0 0 1 1.5-1.5h.4A1.5 1.5 0 0 1 14.7 5v.2a1 1 0 0 0 .6.9 1 1 0 0 0 1.1-.2l.1-.1a1.5 1.5 0 0 1 2.1 0l.1.1a1.5 1.5 0 0 1 0 2.1l-.1.1a1 1 0 0 0-.2 1.1 1 1 0 0 0 .9.6h.2a1.5 1.5 0 0 1 1.5 1.5v.4a1.5 1.5 0 0 1-1.5 1.5h-.2a1 1 0 0 0-.9.6z"></path>
  </symbol>
  <symbol id="icon-dice" viewBox="0 0 24 24" fill="none" stroke="currentColor" stroke-width="1.5" stroke-linecap="round" stroke-linejoin="round">
    <path d="M8 3.5h8l5 5v8l-5 5H8l-5-5v-8z"></path>
    <circle cx="9" cy="9" r="1"></circle>
    <circle cx="15" cy="15" r="1"></circle>
    <circle cx="12" cy="12" r="1"></circle>
  </symbol>
  <symbol id="icon-plus" viewBox="0 0 24 24" fill="none" stroke="currentColor" stroke-width="1.5" stroke-linecap="round" stroke-linejoin="round">
    <path d="M12 5v14"></path>
    <path d="M5 12h14"></path>
  </symbol>
  <symbol id="icon-send" viewBox="0 0 24 24" fill="none" stroke="currentColor" stroke-width="1.5" stroke-linecap="round" stroke-linejoin="round">
    <path d="M4 12 20 4l-4 16-3.5-5.5L4 12z"></path>
    <path d="M12.5 14.5 20 4"></path>
  </symbol>
  <symbol id="icon-save" viewBox="0 0 24 24" fill="none" stroke="currentColor" stroke-width="1.5" stroke-linecap="round" stroke-linejoin="round">
    <path d="M5 4.5h11l3 3V19.5H5z"></path>
    <path d="M8 4.5v6h8v-6"></path>
    <path d="M8 19.5v-5h8v5"></path>
  </symbol>
  <symbol id="icon-door" viewBox="0 0 24 24" fill="none" stroke="currentColor" stroke-width="1.5" stroke-linecap="round" stroke-linejoin="round">
    <path d="M6 3.5h10v17H6z"></path>
    <path d="M16 20.5h2"></path>
    <circle cx="12.5" cy="12" r="0.75"></circle>
  </symbol>
  <symbol id="icon-book-open" viewBox="0 0 24 24" fill="none" stroke="currentColor" stroke-width="1.5" stroke-linecap="round" stroke-linejoin="round">
    <path d="M12 6.5c-1.3-1.5-3.2-2-5.5-2H4.5v13h2c2.3 0 4.2.5 5.5 2"></path>
    <path d="M12 6.5c1.3-1.5 3.2-2 5.5-2h2v13h-2c-2.3 0-4.2.5-5.5 2"></path>
  </symbol>
  <symbol id="icon-shield" viewBox="0 0 24 24" fill="none" stroke="currentColor" stroke-width="1.5" stroke-linecap="round" stroke-linejoin="round">
    <path d="M12 3.5 5.5 6v5.6c0 4.1 2.5 7.8 6.5 8.9 4-1.1 6.5-4.8 6.5-8.9V6z"></path>
  </symbol>
  <symbol id="icon-swords" viewBox="0 0 24 24" fill="none" stroke="currentColor" stroke-width="1.5" stroke-linecap="round" stroke-linejoin="round">
    <path d="m7 4 10 10"></path>
    <path d="m17 4-2.5 2.5"></path>
    <path d="m9.5 11.5-5 5"></path>
    <path d="m4 20 2.5-2.5"></path>
    <path d="m17 20-10-10"></path>
    <path d="m7 20 2.5-2.5"></path>
    <path d="m14.5 12.5 5-5"></path>
    <path d="m20 4-2.5 2.5"></path>
  </symbol>
  <symbol id="icon-zap" viewBox="0 0 24 24" fill="none" stroke="currentColor" stroke-width="1.5" stroke-linecap="round" stroke-linejoin="round">
    <path d="M13 2.5 5 13h5l-1 8.5L19 11h-5l-1-8.5z"></path>
  </symbol>
  <symbol id="icon-footprints" viewBox="0 0 24 24" fill="none" stroke="currentColor" stroke-width="1.5" stroke-linecap="round" stroke-linejoin="round">
    <path d="M8 8.5c0-1.7-1-3-2.2-3S3.5 6.8 3.5 8.5 4.6 12 5.8 12 8 10.2 8 8.5z"></path>
    <path d="M12 18c0-2.8-1.6-5-3.6-5S4.8 15.2 4.8 18c0 1.5.9 2.5 2.4 2.5h2.4c1.5 0 2.4-1 2.4-2.5z"></path>
    <path d="M20.5 8.5c0-1.7-1-3-2.2-3S16 6.8 16 8.5s1.1 3.5 2.3 3.5 2.2-1.8 2.2-3.5z"></path>
    <path d="M19.2 18c0-2.8-1.6-5-3.6-5s-3.6 2.2-3.6 5c0 1.5.9 2.5 2.4 2.5h2.4c1.5 0 2.4-1 2.4-2.5z"></path>
  </symbol>
  <symbol id="icon-heart" viewBox="0 0 24 24" fill="none" stroke="currentColor" stroke-width="1.5" stroke-linecap="round" stroke-linejoin="round">
    <path d="M12 20.5 5.7 14.4a4.6 4.6 0 0 1 6.5-6.5L12 8.1l-.2-.2a4.6 4.6 0 0 1 6.5 6.5z"></path>
  </symbol>
  <symbol id="icon-skull" viewBox="0 0 24 24" fill="none" stroke="currentColor" stroke-width="1.5" stroke-linecap="round" stroke-linejoin="round">
    <path d="M12 3.5a7.5 7.5 0 0 0-7.5 7.5c0 2.6 1.3 4.5 3.5 5.9v3.1h8v-3.1c2.2-1.4 3.5-3.3 3.5-5.9A7.5 7.5 0 0 0 12 3.5z"></path>
    <path d="M9.5 11h.01"></path>
    <path d="M14.5 11h.01"></path>
    <path d="M10 16h4"></path>
  </symbol>
  <symbol id="icon-focus" viewBox="0 0 24 24" fill="none" stroke="currentColor" stroke-width="1.5" stroke-linecap="round" stroke-linejoin="round">
    <circle cx="12" cy="12" r="3"></circle>
    <path d="M12 3.5v3"></path>
    <path d="M12 17.5v3"></path>
    <path d="M3.5 12h3"></path>
    <path d="M17.5 12h3"></path>
  </symbol>
  <symbol id="icon-spark" viewBox="0 0 24 24" fill="none" stroke="currentColor" stroke-width="1.5" stroke-linecap="round" stroke-linejoin="round">
    <path d="M12 4.5 13.7 9l4.8 1.7-4.8 1.6L12 17l-1.7-4.7-4.8-1.6L10.3 9z"></path>
  </symbol>
  <symbol id="icon-flame" viewBox="0 0 24 24" fill="none" stroke="currentColor" stroke-width="1.5" stroke-linecap="round" stroke-linejoin="round">
    <path d="M13.5 3.5c.3 2-1.1 3.1-2.2 4.5A6.2 6.2 0 0 0 9.8 12c0 3 1.8 5 4.2 5s4-1.9 4-4.7c0-2.5-1.4-4.2-2.9-5.8-.8-.8-1.5-1.7-1.6-3z"></path>
    <path d="M10.5 14.5c0 2 1 3.5 2.5 4"></path>
  </symbol>
  <symbol id="icon-crosshair" viewBox="0 0 24 24" fill="none" stroke="currentColor" stroke-width="1.5" stroke-linecap="round" stroke-linejoin="round">
    <circle cx="12" cy="12" r="6"></circle>
    <path d="M12 3.5v3"></path>
    <path d="M12 17.5v3"></path>
    <path d="M3.5 12h3"></path>
    <path d="M17.5 12h3"></path>
  </symbol>
  <symbol id="icon-dragon" viewBox="0 0 24 24" fill="none" stroke="currentColor" stroke-width="1.5" stroke-linecap="round" stroke-linejoin="round">
    <path d="M18.5 6.5c-2.6-2.2-6.9-2.1-9.4.2-1.6 1.5-2.6 3.8-2.6 6.1v4.7l3.5-2.5 2.5 1.5 1-2.5 3 1.5v-3l2-2c1.2-1.2 1.1-3.1 0-4z"></path>
    <path d="M14.5 5.5 16 3.5"></path>
    <path d="M18.5 6.5 20 5"></path>
    <path d="M13.5 10.5h.01"></path>
  </symbol>
  <symbol id="icon-brain" viewBox="0 0 24 24" fill="none" stroke="currentColor" stroke-width="1.5" stroke-linecap="round" stroke-linejoin="round">
    <path d="M9 5.5a3 3 0 0 0-4.5 2.6 3 3 0 0 0 1 5.7V16a3 3 0 0 0 3 3h2.5V5.5z"></path>
    <path d="M15 5.5a3 3 0 0 1 4.5 2.6 3 3 0 0 1-1 5.7V16a3 3 0 0 1-3 3H13V5.5z"></path>
    <path d="M9.5 10.5H11"></path>
    <path d="M13 10.5h1.5"></path>
    <path d="M10.5 14h3"></path>
  </symbol>
  <symbol id="icon-alert-triangle" viewBox="0 0 24 24" fill="none" stroke="currentColor" stroke-width="1.5" stroke-linecap="round" stroke-linejoin="round">
    <path d="M12 4 21 19.5H3z"></path>
    <path d="M12 9v4.5"></path>
    <path d="M12 17.25h.01"></path>
  </symbol>
  <symbol id="icon-hex" viewBox="0 0 24 24" fill="none" stroke="currentColor" stroke-width="1.5" stroke-linecap="round" stroke-linejoin="round">
    <path d="M8 4.5h8l4 7-4 7H8l-4-7z"></path>
  </symbol>
  <symbol id="icon-fingerprint" viewBox="0 0 24 24" fill="none" stroke="currentColor" stroke-width="1.5" stroke-linecap="round" stroke-linejoin="round">
    <path d="M8 10.5a4 4 0 0 1 8 0v1"></path>
    <path d="M6 11.5a6 6 0 0 1 12 0v1.5"></path>
    <path d="M10 14v2"></path>
    <path d="M14 14v3.5"></path>
    <path d="M8 15v3.5"></path>
    <path d="M12 4.5a8 8 0 0 0-8 8v1.5"></path>
    <path d="M12 4.5a8 8 0 0 1 8 8v2.5"></path>
  </symbol>
  <symbol id="icon-target" viewBox="0 0 24 24" fill="none" stroke="currentColor" stroke-width="1.5" stroke-linecap="round" stroke-linejoin="round">
    <circle cx="12" cy="12" r="7"></circle>
    <circle cx="12" cy="12" r="3"></circle>
    <path d="M12 3.5v2"></path>
    <path d="M12 18.5v2"></path>
    <path d="M3.5 12h2"></path>
    <path d="M18.5 12h2"></path>
  </symbol>
  <symbol id="icon-arrow-right-circle" viewBox="0 0 24 24" fill="none" stroke="currentColor" stroke-width="1.5" stroke-linecap="round" stroke-linejoin="round">
    <circle cx="12" cy="12" r="8.5"></circle>
    <path d="M10 8.5 14 12l-4 3.5"></path>
    <path d="M14 12H8"></path>
  </symbol>
  <symbol id="icon-percent" viewBox="0 0 24 24" fill="none" stroke="currentColor" stroke-width="1.5" stroke-linecap="round" stroke-linejoin="round">
    <path d="M6 18 18 6"></path>
    <circle cx="7.5" cy="7.5" r="2"></circle>
    <circle cx="16.5" cy="16.5" r="2"></circle>
  </symbol>
  <symbol id="icon-briefcase" viewBox="0 0 24 24" fill="none" stroke="currentColor" stroke-width="1.5" stroke-linecap="round" stroke-linejoin="round">
    <path d="M8 6.5V5a1.5 1.5 0 0 1 1.5-1.5h5A1.5 1.5 0 0 1 16 5v1.5"></path>
    <path d="M4 8.5h16v10H4z"></path>
    <path d="M4 12.5c2.8 1.4 5.5 2 8 2s5.2-.6 8-2"></path>
  </symbol>
  <symbol id="icon-user" viewBox="0 0 24 24" fill="none" stroke="currentColor" stroke-width="1.5" stroke-linecap="round" stroke-linejoin="round">
    <circle cx="12" cy="8" r="3.5"></circle>
    <path d="M5 19c1.8-3 4-4.5 7-4.5S17.2 16 19 19"></path>
  </symbol>
  <symbol id="icon-pulse" viewBox="0 0 24 24" fill="none" stroke="currentColor" stroke-width="1.5" stroke-linecap="round" stroke-linejoin="round">
    <path d="M3.5 12h4l2.2-4 3.1 8 2.2-4h5.5"></path>
  </symbol>
</svg>
